<?xml version="1.0" standalone="no"?>
<!DOCTYPE svg PUBLIC "-//W3C//DTD SVG 20010904//EN"
 "http://www.w3.org/TR/2001/REC-SVG-20010904/DTD/svg10.dtd">
<svg version="1.0" xmlns="http://www.w3.org/2000/svg"
 width="420.000000pt" height="420.000000pt" viewBox="0 0 420.000000 420.000000"
 preserveAspectRatio="xMidYMid meet">
<metadata>
Created by potrace 1.11, written by Peter Selinger 2001-2013
</metadata>
<g transform="translate(0.000000,420.000000) scale(0.100000,-0.100000)"
fill="#000000" stroke="none">
<path d="M0 2100 l0 -2100 2100 0 2100 0 0 2100 0 2100 -2100 0 -2100 0 0
-2100z m973 -94 c3 -8 1 -74 -5 -146 -7 -87 -7 -135 -1 -141 7 -7 32 8 74 44
72 61 169 122 246 155 61 26 188 52 253 52 139 0 279 -100 356 -253 l25 -49
77 74 c100 96 165 140 269 181 60 23 179 47 238 47 190 -1 350 -135 412 -346
15 -52 18 -124 23 -579 6 -600 -2 -555 108 -601 37 -15 77 -37 90 -48 26 -23
29 -58 6 -81 -15 -15 -38 -16 -213 -9 -108 3 -198 8 -201 10 -3 1 -101 -2
-218 -8 -199 -10 -214 -9 -232 7 -23 21 -26 53 -7 78 6 9 38 28 69 41 97 43
93 22 96 468 2 221 -1 428 -7 480 -22 198 -122 296 -266 263 -92 -21 -166 -70
-198 -130 -21 -39 -22 -52 -25 -483 -4 -502 0 -539 51 -570 18 -11 49 -26 71
-33 42 -15 76 -51 76 -80 0 -10 -11 -26 -25 -35 -22 -14 -46 -15 -222 -7 -123
6 -271 6 -391 0 -171 -8 -195 -7 -217 7 -52 34 -23 86 73 126 87 37 83 12 80
548 l-3 467 -26 55 c-50 105 -93 135 -193 134 -58 -1 -83 -6 -136 -32 -74 -35
-102 -61 -119 -111 -7 -24 -11 -179 -11 -505 0 -544 -5 -516 95 -561 67 -31
93 -65 77 -100 -6 -14 -22 -27 -36 -31 -13 -3 -107 -1 -208 4 -117 6 -260 6
-392 -1 -218 -10 -245 -7 -265 31 -16 31 19 66 96 97 38 14 80 38 96 53 l27
26 0 511 c0 357 -3 522 -11 546 -15 45 -36 67 -84 91 -49 25 -55 33 -55 80 0
41 20 61 75 73 146 33 524 169 541 196 9 14 61 10 67 -5z m2860 -1215 c194
-94 243 -354 94 -499 -67 -64 -119 -86 -214 -90 -71 -4 -89 -1 -136 21 -67 31
-126 87 -158 153 -34 69 -33 188 1 259 32 67 108 139 172 164 70 28 175 24
241 -8z"/>
</g>
</svg>
